<?xml version="1.0" encoding="UTF-8"?>
<svg width="50px" height="50px" viewBox="0 0 50 50" version="1.1" xmlns="http://www.w3.org/2000/svg" xmlns:xlink="http://www.w3.org/1999/xlink">
    <!-- Generator: Sketch 58 (84663) - https://sketch.com -->
    <title>Group 8</title>
    <desc>Created with Sketch.</desc>
    <defs>
        <polygon id="path-1" points="5.76923077e-05 0.184310345 49.815 0.184310345 49.815 49.8084291 5.76923077e-05 49.8084291"></polygon>
    </defs>
    <g id="Website" stroke="none" stroke-width="1" fill="none" fill-rule="evenodd">
        <g id="Home-Link" transform="translate(-30.000000, -30.000000)">
            <g id="Group-8" transform="translate(30.000000, 30.000000)">
                <polygon id="Fill-1" fill="#7CA7C6" points="36.19675 26.1607663 17.92675 26.1607663 17.92675 17.3488889 4.32848077 17.3488889 4.32848077 14.2837548 21.0036731 14.2837548 21.0036731 23.0956322 36.19675 23.0956322"></polygon>
                <g id="Group-7" transform="translate(0.000000, 0.007280)">
                    <path d="M40.2152115,24.6437548 C40.2152115,26.8544828 38.4161731,28.6468199 36.19675,28.6468199 C33.9773269,28.6468199 32.1782885,26.8544828 32.1782885,24.6437548 C32.1782885,22.4330268 33.9773269,20.6406897 36.19675,20.6406897 C38.4161731,20.6406897 40.2152115,22.4330268 40.2152115,24.6437548" id="Fill-2" fill="#7AA7C7"></path>
                    <g id="Group-6">
                        <mask id="mask-2" fill="white">
                            <use xlink:href="#path-1"></use>
                        </mask>
                        <g id="Clip-5"></g>
                        <path d="M25.9667885,31.6065326 L25.9667885,26.1762644 L22.8898654,26.1762644 L22.8898654,34.6716667 L34.6583269,34.6716667 L34.6583269,38.1530843 L29.8814038,38.1530843 L29.8814038,41.2182184 L39.4298654,41.2182184 C35.5685192,44.6525096 30.4789038,46.7433142 24.9075577,46.7433142 C15.5860192,46.7433142 7.61178846,40.8925479 4.48736538,32.6845019 L10.5014038,32.6845019 L10.5014038,29.6193678 L5.86698077,29.6193678 L5.86698077,26.1534674 L16.0535192,26.1534674 L16.0535192,17.34159 L12.9765962,17.34159 L12.9765962,23.0883333 L3.16198077,23.0883333 C3.75928846,16.2751149 7.52351923,10.3528927 12.9765962,6.79388889 L12.9765962,14.2764559 L16.0535192,14.2764559 L16.0535192,5.12032567 C18.7610192,3.9187931 21.7571731,3.24944444 24.9075577,3.24944444 C33.0346731,3.24944444 40.1379423,7.69695402 43.8956346,14.2764559 L22.8898654,14.2764559 L22.8898654,23.1111303 L25.9667885,23.1111303 L25.9667885,17.34159 L45.3404423,17.34159 C46.2429423,19.7239655 46.7381346,22.3032759 46.7381346,24.9963793 C46.7381346,27.3002107 46.3754423,29.5209004 45.7058269,31.6065326 L25.9667885,31.6065326 Z M42.2771731,38.1530843 L37.73525,38.1530843 L37.73525,34.6716667 L44.4544808,34.6716667 C43.8379423,35.9028927 43.10775,37.0678352 42.2771731,38.1530843 L42.2771731,38.1530843 Z M24.9075577,0.184310345 C11.1735192,0.184310345 5.76923077e-05,11.3149617 5.76923077e-05,24.9963793 C5.76923077e-05,38.6777969 11.1735192,49.8084483 24.9075577,49.8084483 C38.6415962,49.8084483 49.8150577,38.6777969 49.8150577,24.9963793 C49.8150577,11.3149617 38.6415962,0.184310345 24.9075577,0.184310345 L24.9075577,0.184310345 Z" id="Fill-4" fill="#1D1D1B" mask="url(#mask-2)"></path>
                    </g>
                </g>
            </g>
        </g>
    </g>
</svg>